<svg width="32" height="32" viewBox="0 0 32 32" xmlns="http://www.w3.org/2000/svg">
  <defs>
    <linearGradient id="faviconGradient" x1="0%" y1="0%" x2="100%" y2="100%">
      <stop offset="0%" style="stop-color:#2563eb;stop-opacity:1" />
      <stop offset="100%" style="stop-color:#3b82f6;stop-opacity:1" />
    </linearGradient>
  </defs>
  
  <!-- Background -->
  <rect width="32" height="32" rx="6" fill="url(#faviconGradient)"/>
  
  <!-- Repository Grid -->
  <rect x="4" y="8" width="6" height="4" rx="1" fill="white" opacity="0.9"/>
  <rect x="13" y="8" width="6" height="4" rx="1" fill="white" opacity="0.7"/>
  <rect x="22" y="8" width="6" height="4" rx="1" fill="white" opacity="0.5"/>
  
  <rect x="4" y="14" width="6" height="4" rx="1" fill="white" opacity="0.7"/>
  <rect x="13" y="14" width="6" height="4" rx="1" fill="white" opacity="0.9"/>
  <rect x="22" y="14" width="6" height="4" rx="1" fill="white" opacity="0.6"/>
  
  <rect x="4" y="20" width="6" height="3" rx="1" fill="white" opacity="0.5"/>
  <rect x="13" y="20" width="6" height="3" rx="1" fill="white" opacity="0.6"/>
  <rect x="22" y="20" width="6" height="3" rx="1" fill="white" opacity="0.8"/>
  
  <!-- Star -->
  <path d="M16 2 L17.5 6 L22 6 L18.5 8.5 L20 12.5 L16 10 L12 12.5 L13.5 8.5 L10 6 L14.5 6 Z" 
        fill="#10b981" opacity="0.9"/>
  
  <!-- Rocket -->
  <path d="M16 26 L18 24 L20 25 L22 24 L20 26 L18 28 L16 26 Z" 
        fill="white" opacity="0.8"/>
</svg>